{"title":"Dark Perversions 3 XXX ***[**NEW**]*** 25 August 2014","uid":10874817,"size":2328708744,"categoryP":"porn","categoryS":"movies","magnet":"?xt=urn:btih:fbb174e4b4c3add36065a7b675e267f29c36dce3&amp;dn=Dark+Perversions+3+XXX+%2A%2A%2A%5B%2A%2ANEW%2A%2A%5D%2A%2A%2A+25+August+2014&amp;tr=udp%3A%2F%2Ftracker.openbittorrent.com%3A80&amp;tr=udp%3A%2F%2Fopen.demonii.com%3A1337&amp;tr=udp%3A%2F%2Ftracker.coppersurfer.tk%3A6969&amp;tr=udp%3A%2F%2Fexodus.desync.com%3A6969","seeders":0,"leechers":0,"uploader":"iH2OSO4","files":-1,"time":1408986521,"description":"Dark Perversions 3 XXX ***[**NEW**]*** 25 August 2014\n\nThe complex cerebral bases for human sexual behavior has always been a controversial mystery. For those of us who's perversions dwell from deep within the darkest corners of our minds, there tends to be a bit more controversy...and a bit more fun. Exploring the adrenaline pumping, rush of fear combined with the overwhelming sensation of lust and hard fucking is something we pride ourselves in doing properly. We now invite you to explore your sexual boundaries in the third installment of our critically acclaimed series. Dark Perversions!\n\nSOURCE :   &lt;a href=&quot; http://nuscotower.com/i/dark_fgns6.html&quot; rel=&quot;nofollow&quot; target=&quot;_NEW&quot;&gt; http://nuscotower.com/i/dark_fgns6.html&lt;/a&gt;\n\nGeneral\nDark.Perversions.3.XXX.2014.DVDRiP-ViK.mp4\nFormat                           : MPEG-4\nFormat profile                   : Base Media\nCodec ID                         : isom\nFile size                        : 2.17 GiB\nDuration                         : 2h 33mn\nOverall bit rate                 : 2 020 Kbps\nEncoded date                     : UTC 2014-08-25 14:20:18\nTagged date                      : UTC 2014-08-25 14:20:18\n\nVideo\nID                               : 1\nFormat                           : MPEG-4 Visual\nFormat profile                   : Simple@L1\nFormat settings, BVOP            : No\nFormat settings, QPel            : No\nFormat settings, GMC             : No warppoints\nFormat settings, Matrix          : Default (H.263)\nCodec ID                         : 20\nDuration                         : 2h 33mn\nBit rate mode                    : Variable\nBit rate                         : 1 894 Kbps\nMaximum bit rate                 : 9 810 Kbps\nWidth                            : 712 pixels\nHeight                           : 400 pixels\nDisplay aspect ratio             : 16:9\nFrame rate mode                  : Constant\nFrame rate                       : 29.970 fps\nColor space                      : YUV\nChroma subsampling               : 4:2:0\nBit depth                        : 8 bits\nScan type                        : Progressive\nCompression mode                 : Lossy\nBits/(Pixel*Frame)               : 0.222\nStream size                      : 2.03 GiB (94%)\nWriting library                  : Lavc53.8.0\nEncoded date                     : UTC 2014-08-25 14:20:18\nTagged date                      : UTC 2014-08-25 14:22:23\n\nAudio\nID                               : 2\nFormat                           : AAC\nFormat/Info                      : Advanced Audio Codec\nFormat profile                   : LC\nCodec ID                         : 40\nDuration                         : 2h 33mn\nBit rate mode                    : Variable\nBit rate                         : 124 Kbps\nMaximum bit rate                 : 287 Kbps\nChannel(s)                       : 2 channels\nChannel positions                : Front: L R\nSampling rate                    : 44.1 KHz\nCompression mode                 : Lossy\nStream size                      : 136 MiB (6%)\nEncoded date                     : UTC 2014-08-25 14:21:59\nTagged date                      : UTC 2014-08-25 14:22:23\n","torrent":{"xt":"urn:btih:fbb174e4b4c3add36065a7b675e267f29c36dce3","amp;dn":"Dark+Perversions+3+XXX+%2A%2A%2A%5B%2A%2ANEW%2A%2A%5D%2A%2A%2A+25+August+2014","amp;tr":["udp%3A%2F%2Ftracker.openbittorrent.com%3A80","udp%3A%2F%2Fopen.demonii.com%3A1337","udp%3A%2F%2Ftracker.coppersurfer.tk%3A6969","udp%3A%2F%2Fexodus.desync.com%3A6969"],"infoHash":"fbb174e4b4c3add36065a7b675e267f29c36dce3","infoHashBuffer":{"type":"Buffer","data":[251,177,116,228,180,195,173,211,96,101,167,182,117,226,103,242,156,54,220,227]},"announce":[],"urlList":[]}}